# xmcd
#
# Track frame offsets:
#	150
#	16977
#	34692
#	52260
#	69592
#	88312
#	108672
#	122440
#	141865
#	159815
#
# Disc length: 2358 seconds
#
# Revision: 12
# Processed by: cddbd v1.5.2PL0 Copyright (c) Steve Scherf et al.
# Submitted via: EasyCDDAExtractor 15.3.0.1
#
DISCID=8509340a
DTITLE=Cher
DYEAR=1987
DGENRE=Pop/Rock
TTITLE0=I Found Someone
TTITLE1=We All Sleep Alone
TTITLE2=Bang Bang
TTITLE3=Main Man
TTITLE4=Give Our Love A Fightin' Chance
TTITLE5=Perfection
TTITLE6=Dangerous Times
TTITLE7=Skin Deep
TTITLE8=Working Girl
TTITLE9=Hard Enough Getting Over You
EXTD=
EXTT0=
EXTT1=
EXTT2=
EXTT3=
EXTT4=
EXTT5=
EXTT6=
EXTT7=
EXTT8=
EXTT9=
PLAYORDER=
